<svg width="190" height="66" viewBox="0 0 190 66" fill="none" xmlns="http://www.w3.org/2000/svg">
<path d="M55.8819 42.6773H64.3336V39.3671H55.8819V34.6151H64.5755V31.3507H52.2986V50.8867H64.8527V47.5765H55.8819V42.6773ZM70.3763 32.7011H66.7829V50.8867H79.4227V47.7847H70.3814V32.7011H70.3763ZM95.8676 40.4333C96.3564 40.1185 96.7798 39.7581 97.0973 39.3062C97.6264 38.5802 97.8633 37.6765 97.8633 36.6408C97.8633 34.9857 97.309 33.6251 96.1901 32.6961C95.0713 31.7568 93.5442 31.3253 91.619 31.3253H85.7023V50.8765H92.632C94.6227 50.8765 96.2607 50.3891 97.5005 49.389C98.7302 48.3939 99.3853 47.0079 99.3652 45.3325C99.3652 44.0328 98.9469 42.8854 98.1556 41.9716C97.5508 41.2964 96.7899 40.7836 95.8726 40.4282M89.2402 34.6354H91.3368C92.4355 34.6354 93.1612 34.8334 93.5543 35.1584C93.7458 35.331 93.892 35.5137 94.0028 35.7981C94.0936 36.0621 94.154 36.4022 94.154 36.8134C94.154 37.7171 93.8869 38.2807 93.3477 38.6919C92.8286 39.0828 91.9113 39.3316 90.5909 39.3316H89.2402V34.6354ZM94.9201 46.9571C94.4564 47.3176 93.5997 47.5613 92.3498 47.5359H89.2453V42.6519H91.9164C93.3174 42.6519 94.2901 42.8956 94.8243 43.2865C95.3535 43.6927 95.6307 44.2308 95.6307 45.1497C95.6307 46.0687 95.3938 46.5916 94.9201 46.9571ZM127.593 40.2302L127.21 40.0221C126.182 39.423 125.431 38.8747 124.947 38.4076C124.705 38.1639 124.539 37.9608 124.448 37.773C124.332 37.5851 124.297 37.4481 124.297 37.3364C124.312 36.8845 124.458 36.5799 124.872 36.2804C125.285 35.9808 125.824 35.8133 126.55 35.8133C127.17 35.8133 127.764 35.925 128.374 36.1687C128.994 36.4327 129.685 36.8287 130.425 37.4125L131.151 37.9557V34.0617L130.934 33.9297C130.229 33.5388 129.513 33.2393 128.803 33.0311C128.097 32.8433 127.386 32.7265 126.656 32.7265C125.043 32.7265 123.657 33.1834 122.578 34.0821C121.515 34.9857 120.956 36.2042 120.956 37.6105C120.956 38.631 121.238 39.5296 121.812 40.281C122.135 40.677 122.599 41.0882 123.234 41.5553C123.884 42.0528 124.72 42.591 125.728 43.2154C126.363 43.581 126.877 43.9262 127.276 44.2105C127.674 44.4948 127.951 44.7334 128.082 44.8857C128.354 45.2208 128.46 45.561 128.49 46.0128C128.46 46.5561 128.299 46.8962 127.89 47.2161C127.497 47.5156 126.903 47.7034 126.081 47.7034C125.32 47.7034 124.609 47.5359 123.934 47.1805C123.269 46.8404 122.538 46.2362 121.757 45.4188L120.971 44.5659V49.0793L121.162 49.2062C121.898 49.7901 122.679 50.2216 123.511 50.4856C124.342 50.7801 125.26 50.9019 126.242 50.9019C127.87 50.9019 129.251 50.4501 130.315 49.5464C131.393 48.6427 131.952 47.4394 131.952 46.0484C131.952 44.8654 131.675 43.8297 131.081 42.987C130.481 42.1239 129.327 41.2405 127.588 40.2251M150.161 47.8761C151.507 46.2616 152.177 44.3476 152.177 42.1899C152.177 40.8699 151.93 39.6261 151.467 38.4787C150.983 37.3516 150.272 36.321 149.34 35.4021C148.448 34.5187 147.399 33.8231 146.225 33.3561C145.026 32.8839 143.801 32.6453 142.496 32.6453C141.19 32.6453 139.976 32.8839 138.807 33.3561C137.642 33.8231 136.599 34.4984 135.667 35.4021C134.775 36.2854 134.064 37.3008 133.585 38.4431C133.076 39.6108 132.829 40.7887 132.829 42.0173C132.829 44.2511 133.505 46.2413 134.835 47.9217C136.141 49.587 137.884 50.6937 140.016 51.237C141.604 52.3691 143.095 53.2322 144.512 53.8262C145.973 54.4456 147.299 54.7502 148.508 54.7502H148.861C148.977 54.7502 149.068 54.7401 149.153 54.7197L149.299 54.6994L151.955 52.3488L151.754 51.7802L151.608 51.4248L151.255 51.501C150.907 51.5771 150.62 51.6177 150.333 51.6482C150.07 51.6939 149.834 51.6939 149.602 51.6939C148.916 51.6939 148.191 51.5873 147.43 51.4045C146.956 51.2725 146.417 51.0796 145.847 50.8562C147.596 50.2013 149.068 49.2214 150.166 47.871M148.186 44.1242C147.868 44.8756 147.44 45.5508 146.86 46.1144L146.84 46.1296C146.245 46.7541 145.57 47.1957 144.844 47.5207C144.098 47.8202 143.317 47.9827 142.496 47.9827C141.674 47.9827 140.903 47.8202 140.142 47.5004C139.376 47.1653 138.726 46.7134 138.141 46.1245V46.1093C137.567 45.5457 137.123 44.8705 136.826 44.1191C136.503 43.3627 136.357 42.5808 136.357 41.7482C136.357 40.9156 136.503 40.1134 136.826 39.3468C137.123 38.5954 137.567 37.9354 138.131 37.3668C138.746 36.7677 139.411 36.321 140.162 36.0011C140.928 35.6762 141.689 35.5341 142.491 35.5341C143.292 35.5341 144.093 35.6813 144.839 36.0011C145.58 36.3007 146.235 36.7525 146.82 37.3516C147.43 37.971 147.873 38.6462 148.176 39.4027C148.493 40.1337 148.639 40.9105 148.639 41.7533C148.639 42.5961 148.493 43.3677 148.176 44.1242M165.996 43.8754C165.981 45.0381 165.613 45.9062 164.787 46.5916C163.99 47.2719 162.902 47.6527 161.486 47.6527C160.649 47.6527 159.923 47.5004 159.303 47.2364C158.668 46.9724 158.129 46.5561 157.66 46.0128C157.429 45.7285 157.252 45.3934 157.166 44.9974C157.056 44.6065 156.99 43.8501 156.99 42.7585V32.7062H153.654V42.855C153.654 44.241 153.75 45.2767 153.956 46.0077C154.158 46.7236 154.49 47.3836 154.974 47.9573C155.745 48.9168 156.678 49.6327 157.791 50.1353C158.895 50.6227 160.14 50.8714 161.486 50.8714C163.754 50.8714 165.664 50.2317 167.12 48.9574C168.597 47.6933 169.343 45.9671 169.317 43.9364V32.7011H166.001V43.8653L165.996 43.8754ZM175.038 47.7491V43.2916H183.545V40.1794H175.038V35.8945H183.807V32.7925H171.444V50.8461H184.094V47.7491H175.043H175.038ZM116.944 35.265C116.032 34.3917 114.984 33.7317 113.814 33.2596C112.62 32.8077 111.375 32.5641 110.06 32.5641C108.744 32.5641 107.55 32.8077 106.37 33.2596C105.196 33.7064 104.128 34.3867 103.221 35.265C102.303 36.1128 101.598 37.1079 101.089 38.2401C100.605 39.3621 100.348 40.5501 100.348 41.7482C100.348 42.9464 100.59 44.2308 101.074 45.3579C101.557 46.485 102.268 47.5004 103.221 48.399C104.113 49.2468 105.161 49.9221 106.355 50.3891C107.53 50.841 108.779 51.0796 110.06 51.0796C111.34 51.0796 112.62 50.8562 113.794 50.4044C114.968 49.9424 116.012 49.2824 116.969 48.399C117.886 47.5359 118.572 46.5357 119.076 45.429C119.565 44.3019 119.802 43.119 119.802 41.8904C119.802 40.6008 119.565 39.3976 119.091 38.2908C118.602 37.1587 117.886 36.1433 116.949 35.2599M115.79 44.1344C115.472 44.8705 115.049 45.5305 114.464 46.0941C113.87 46.6728 113.194 47.1297 112.474 47.4039C111.708 47.6984 110.926 47.8557 110.065 47.8557C109.203 47.8557 108.447 47.7034 107.676 47.4039C106.915 47.0841 106.265 46.6525 105.69 46.0941C105.105 45.5254 104.657 44.8705 104.36 44.1344C104.042 43.4084 103.896 42.6519 103.896 41.8294C103.896 41.007 104.042 40.2505 104.36 39.4991C104.677 38.7681 105.105 38.1284 105.69 37.5648C106.3 37.0013 106.975 36.5494 107.731 36.2347C108.477 35.9301 109.263 35.7828 110.065 35.7828C110.906 35.7828 111.687 35.9301 112.433 36.2347C113.184 36.5342 113.85 36.9861 114.434 37.5648C115.049 38.169 115.498 38.8239 115.81 39.555C116.107 40.2657 116.259 41.0222 116.259 41.8294C116.259 42.6367 116.107 43.4084 115.795 44.1344M57.414 27.0454C59.0166 27.0454 60.2867 26.5327 61.2241 25.5224C62.1514 24.507 62.6352 23.1362 62.6352 21.4253V13.9673H61.5668V21.4862C61.5668 22.857 61.1938 23.9485 60.458 24.7557C59.6869 25.563 58.679 25.9742 57.4089 25.9742C56.1389 25.9742 55.131 25.5579 54.3851 24.7557C53.619 23.9434 53.2461 22.857 53.2461 21.4862V13.9673H52.228V21.4253C52.228 23.1565 52.6867 24.5273 53.6241 25.5224C54.5564 26.5327 55.8265 27.0454 57.4089 27.0454M67.5389 15.9016L75.7437 25.8727H76.5652V14.6019H75.6832V24.4257L67.5742 14.6019H66.6418V25.8727H67.5389V15.9016ZM80.6373 26.0453H81.5898V14.7542H80.6373V26.0453ZM89.6434 26.2331L94.3455 14.7542H93.393L89.5678 24.2277L85.788 14.7542H84.7951L89.5124 26.2331H89.6485H89.6434ZM103.145 25.2736H97.9036V20.6841H102.843V19.9631H97.9036V15.4853H103.019V14.7542H97.0116V26.0453H103.15V25.2736H103.145ZM107.978 20.613H108.88C109.52 20.613 109.999 20.6688 110.307 20.745C110.629 20.8161 110.886 20.9734 111.093 21.1765C111.239 21.3288 111.425 21.5725 111.682 21.9279C111.929 22.2681 112.242 22.7148 112.574 23.2682L114.348 26.0402H115.356L112.297 21.2882C112.171 21.0801 112.015 20.8922 111.874 20.7399C111.703 20.5876 111.516 20.4607 111.314 20.3287C112.02 20.1002 112.549 19.755 112.902 19.2879C113.255 18.8361 113.426 18.2522 113.426 17.577C113.426 16.6631 113.124 15.9625 112.494 15.4751C111.854 14.9877 110.962 14.7441 109.787 14.7441H107.096V26.0351H107.978V20.6079V20.613ZM107.978 15.5259H109.843C110.68 15.5259 111.315 15.6934 111.783 16.0691C112.232 16.4245 112.453 16.9322 112.453 17.5871C112.453 18.0593 112.363 18.4705 112.156 18.7954C111.95 19.1356 111.652 19.3742 111.239 19.557C111.017 19.6534 110.75 19.7296 110.417 19.7905C110.075 19.821 109.495 19.8413 108.669 19.8413H107.978V15.5259ZM123.864 23.1108C123.864 22.7402 123.793 22.3848 123.682 22.0396C123.546 21.7045 123.37 21.3999 123.138 21.141C122.785 20.745 122.09 20.3337 121.087 19.9225C120.976 19.8667 120.905 19.8413 120.85 19.8057C119.933 19.4148 119.338 19.0797 119.076 18.7599C118.799 18.4654 118.668 18.0441 118.668 17.5567C118.668 16.9525 118.869 16.4448 119.303 16.0336C119.731 15.6427 120.27 15.4345 120.94 15.4345C121.349 15.4345 121.767 15.5107 122.175 15.6579C122.609 15.8051 123.032 16.059 123.501 16.3737V15.3634C123.072 15.1197 122.664 14.9319 122.251 14.7999C121.838 14.6933 121.414 14.6121 120.981 14.6121C120.028 14.6121 119.262 14.8964 118.668 15.4599C118.068 16.0234 117.77 16.7393 117.77 17.5973C117.77 18.3131 117.957 18.897 118.35 19.3488C118.738 19.7956 119.464 20.2474 120.527 20.6942C121.555 21.1308 122.206 21.5065 122.493 21.8264C122.785 22.1665 122.911 22.5828 122.911 23.0905C122.911 23.7861 122.715 24.3242 122.281 24.7405C121.873 25.1365 121.288 25.3447 120.568 25.3447C120.139 25.3447 119.665 25.2279 119.222 25.0401C118.738 24.8421 118.254 24.5374 117.73 24.1211V25.2076C118.214 25.5528 118.678 25.7914 119.151 25.959C119.63 26.1214 120.099 26.2027 120.583 26.2027C121.54 26.2027 122.316 25.9285 122.936 25.3396C123.551 24.7608 123.864 24.0247 123.864 23.121M128.374 14.7542H127.432V26.0453H128.374V14.7542ZM138.504 25.7813C139.119 25.6137 139.643 25.3548 140.132 24.9944C140.822 24.4664 141.362 23.8165 141.755 23.0042C142.143 22.197 142.329 21.3085 142.329 20.3896C142.329 19.4707 142.143 18.6025 141.755 17.775C141.362 16.9677 140.822 16.3077 140.132 15.7848C139.643 15.4244 139.124 15.1654 138.519 14.9928C137.93 14.8456 137.219 14.7491 136.362 14.7491H132.522V26.0402H136.362C137.199 26.0402 137.904 25.9437 138.504 25.7762M133.474 25.2381V15.5564H136.14C136.861 15.5564 137.496 15.6376 138.015 15.7493C138.544 15.8813 139.008 16.0641 139.381 16.3281C139.996 16.7444 140.48 17.3282 140.843 18.0441C141.19 18.7599 141.357 19.5468 141.357 20.4099C141.357 21.273 141.19 22.0447 140.843 22.7808C140.48 23.4916 139.996 24.0551 139.381 24.4917C139.008 24.7557 138.544 24.9385 138.015 25.0705C137.491 25.1822 136.861 25.2381 136.14 25.2381H133.474ZM148.614 15.1857L144.008 26.0453H144.905L146.472 22.2884H151.109L152.681 26.0453H153.573L148.967 15.1857H148.609H148.614ZM146.764 21.5522L148.805 16.6733L150.821 21.5522H146.769H146.764ZM162.791 25.7813C163.411 25.6137 163.95 25.3548 164.409 24.9944C165.109 24.4664 165.643 23.8165 166.032 23.0042C166.425 22.197 166.616 21.3085 166.616 20.3896C166.616 19.4707 166.425 18.6025 166.032 17.775C165.643 16.9677 165.109 16.3077 164.409 15.7848C163.945 15.4244 163.411 15.1654 162.806 14.9928C162.206 14.8456 161.501 14.7491 160.644 14.7491H156.824V26.0402H160.644C161.481 26.0402 162.196 25.9437 162.791 25.7762M157.751 25.2381V15.5564H160.427C161.148 15.5564 161.783 15.6376 162.302 15.7493C162.826 15.8813 163.295 16.0641 163.668 16.3281C164.288 16.7444 164.772 17.3282 165.119 18.0441C165.482 18.7599 165.643 19.5468 165.643 20.4099C165.643 21.273 165.482 22.0447 165.119 22.7808C164.772 23.4916 164.288 24.0551 163.668 24.4917C163.295 24.7557 162.831 24.9385 162.302 25.0705C161.783 25.1822 161.143 25.2381 160.427 25.2381H157.751Z" fill="#e8f2eb"/>
<path d="M23.4204 58.7509C19.318 48.7138 17.8716 38.3264 17.8716 27.609C17.8716 22.989 18.1639 18.3589 18.93 13.7998H22.8458C21.8984 18.1355 21.6061 22.5778 21.6061 27.0049C21.6061 36.3058 22.7501 46.1956 25.4262 55.1615C28.0973 46.2007 29.2413 36.3109 29.2413 27.0049C29.2413 22.5778 28.9491 18.1355 28.0016 13.7998H31.9175C32.6835 18.3589 32.9758 22.989 32.9758 27.609C32.9758 38.3264 31.5294 48.7189 27.427 58.7509H23.4204Z" fill="#FD7519"/>
<path d="M38.908 27.0708C39.2608 26.7459 39.8101 26.7713 40.1327 27.1318C40.4552 27.4871 40.43 28.0405 40.0772 28.3705C39.7194 28.6955 39.1751 28.6701 38.8475 28.3096C38.525 27.9542 38.5502 27.4008 38.903 27.0708H38.908Z" fill="#FD7519"/>
<path d="M41.7352 30.1827C42.088 29.8577 42.6373 29.8831 42.9598 30.2436C43.2824 30.599 43.2572 31.1523 42.9044 31.4773C42.5465 31.8022 42.0023 31.7768 41.6747 31.4214C41.3521 31.066 41.3773 30.5127 41.7301 30.1827H41.7352Z" fill="#FD7519"/>
<path d="M38.1874 38.8287C38.5604 38.524 39.1047 38.5748 39.4121 38.9505C39.7195 39.3262 39.6641 39.8745 39.2911 40.1842C38.9182 40.4888 38.3739 40.438 38.0665 40.0624C37.7641 39.6867 37.8145 39.1384 38.1874 38.8287Z" fill="#FD7519"/>
<path d="M40.9288 42.261C41.3017 41.9615 41.8511 42.0224 42.1484 42.4031C42.4458 42.7839 42.3853 43.3322 42.0124 43.6318C41.6344 43.9313 41.0901 43.8704 40.7927 43.4896C40.4954 43.1139 40.5558 42.5605 40.9288 42.261Z" fill="#FD7519"/>
<path d="M40.5154 35.2701C40.8682 34.9451 41.4175 34.9705 41.7401 35.331C42.0626 35.6864 42.0374 36.2397 41.6847 36.5697C41.3268 36.8947 40.7825 36.8693 40.455 36.5088C40.1324 36.1534 40.1576 35.6001 40.5104 35.2701H40.5154Z" fill="#FD7519"/>
<path d="M36.7559 51.4856C37.154 51.2166 37.6933 51.3232 37.9604 51.7293C38.2275 52.1304 38.1217 52.6736 37.7235 52.9427C37.3254 53.2118 36.7861 53.1052 36.519 52.7041C36.2519 52.303 36.3577 51.7598 36.7559 51.4907V51.4856Z" fill="#FD7519"/>
<path d="M38.2327 47.7743C38.6258 47.4951 39.165 47.5865 39.4422 47.9825C39.7194 48.3785 39.6287 48.9217 39.2356 49.2009C38.8425 49.4801 38.3032 49.3888 38.026 48.9928C37.7489 48.5968 37.8396 48.0535 38.2327 47.7692V47.7743Z" fill="#FD7519"/>
<path d="M42.9042 21.537C43.1159 21.1004 43.635 20.9227 44.0634 21.1308C44.4968 21.3441 44.6732 21.867 44.4666 22.2985C44.2549 22.7351 43.7358 22.9128 43.3074 22.7047C42.8791 22.4915 42.6976 21.9685 42.9042 21.537Z" fill="#FD7519"/>
<path d="M44.0687 17.7951C44.0939 17.3128 44.5021 16.9422 44.9809 16.9675C45.4596 16.9929 45.8276 17.3991 45.8074 17.8814C45.7822 18.3637 45.374 18.7343 44.8952 18.714C44.4164 18.6886 44.0485 18.2774 44.0687 17.7951Z" fill="#FD7519"/>
<path d="M43.6451 13.6979C43.5544 13.2257 43.8668 12.7688 44.3355 12.6774C44.8093 12.586 45.2628 12.9008 45.3485 13.373C45.4392 13.8502 45.1268 14.3071 44.6581 14.3934C44.1843 14.4848 43.7307 14.17 43.64 13.6979H43.6451Z" fill="#FD7519"/>
<path d="M41.1403 9.6266C40.8984 9.21029 41.0395 8.67214 41.4528 8.42845C41.866 8.18476 42.4003 8.32183 42.6422 8.74322C42.8841 9.15953 42.743 9.69768 42.3297 9.94137C41.9165 10.1851 41.3822 10.0429 41.1403 9.6266Z" fill="#FD7519"/>
<path d="M40.2889 24.0396C40.6416 23.7147 41.191 23.7401 41.5135 24.1005C41.8361 24.4559 41.8109 25.0093 41.4581 25.3342C41.1003 25.6591 40.556 25.6337 40.2284 25.2784C39.9058 24.923 39.9311 24.3696 40.2838 24.0396H40.2889Z" fill="#FD7519"/>
<path d="M35.627 7.13363C34.4981 7.01178 33.8782 7.34686 33.5657 7.63624C32.9408 8.20993 32.9005 9.07809 33.4649 9.81932L39.1952 17.521C39.81 18.3333 39.8252 19.4502 39.0742 20.1458L33.5708 25.2075C32.8199 25.8979 32.7644 27.0707 33.4498 27.8322L37.2397 32.0156C37.5824 32.3913 37.5522 32.9802 37.1793 33.3204L33.0265 37.1332C32.2756 37.8236 32.2201 38.9964 32.9055 39.7579L36.2217 43.6672C36.5392 44.0682 36.4737 44.647 36.0806 44.9669L31.1214 48.4902C30.3201 49.1249 30.179 50.2875 30.809 51.0947L34.5536 56.3798C35.1482 57.2124 36.2973 57.4053 37.1238 56.8062C37.9504 56.2072 38.1419 55.0496 37.5472 54.217L35.4052 50.9932C35.0928 50.5921 35.1634 50.0082 35.5615 49.6935L40.5307 46.1244C41.327 45.4847 41.453 44.317 40.818 43.5149L37.4817 39.3061C37.139 38.9304 37.1642 38.3465 37.5421 38.0013L41.6949 34.1885C42.4459 33.4981 42.5013 32.3253 41.8159 31.5638L38.031 27.3804C37.6883 27.0047 37.7135 26.4158 38.0915 26.0756L42.2342 22.2629C42.7734 21.7704 43.7512 20.7753 44.0535 18.0033C44.6482 12.4898 41.0246 7.71747 35.627 7.13363ZM38.0562 10.591C37.7538 10.8702 37.2851 10.8449 37.0129 10.5402C36.7358 10.2356 36.761 9.76347 37.0634 9.48932C37.3657 9.21516 37.8345 9.23547 38.1066 9.54009C38.3838 9.8447 38.3586 10.3169 38.0562 10.591Z" fill="#FD7519"/>
<path d="M11.9399 27.0703C11.5871 26.7454 11.0377 26.7708 10.7152 27.1313C10.3926 27.4867 10.4179 28.04 10.7707 28.37C11.1285 28.695 11.6728 28.6696 12.0004 28.3091C12.3229 27.9537 12.2977 27.4003 11.9449 27.0703H11.9399Z" fill="#FD7519"/>
<path d="M9.11272 30.1827C8.75994 29.8577 8.2106 29.8831 7.88806 30.2436C7.56551 30.599 7.5907 31.1523 7.94349 31.4773C8.30131 31.8022 8.84561 31.7768 9.1732 31.4214C9.49574 31.066 9.47055 30.5127 9.11777 30.1827H9.11272Z" fill="#FD7519"/>
<path d="M12.6604 38.8287C12.2875 38.524 11.7432 38.5748 11.4357 38.9505C11.1283 39.3262 11.1838 39.8745 11.5567 40.1842C11.9297 40.4888 12.474 40.438 12.7814 40.0624C13.0838 39.6867 13.0334 39.1384 12.6604 38.8287Z" fill="#FD7519"/>
<path d="M9.9191 42.2605C9.54615 41.961 8.99679 42.0219 8.69945 42.4027C8.4021 42.7834 8.46259 43.3317 8.83553 43.6313C9.21351 43.9308 9.7578 43.8699 10.0552 43.4891C10.3525 43.1134 10.292 42.56 9.9191 42.2605Z" fill="#FD7519"/>
<path d="M10.3319 35.2696C9.97916 34.9446 9.42983 34.97 9.10728 35.3305C8.78473 35.6859 8.80996 36.2393 9.16274 36.5693C9.52057 36.8942 10.0649 36.8688 10.3925 36.5083C10.715 36.153 10.6898 35.5996 10.337 35.2696H10.3319Z" fill="#FD7519"/>
<path d="M14.0917 51.4856C13.6935 51.2166 13.1543 51.3232 12.8872 51.7293C12.62 52.1304 12.7259 52.6736 13.124 52.9427C13.5222 53.2118 14.0615 53.1052 14.3286 52.7041C14.5957 52.303 14.4898 51.7598 14.0917 51.4907V51.4856Z" fill="#FD7519"/>
<path d="M12.615 47.7743C12.2219 47.4951 11.6826 47.5865 11.4054 47.9825C11.1282 48.3785 11.219 48.9217 11.6121 49.2009C12.0052 49.4801 12.5444 49.3888 12.8216 48.9928C13.0988 48.5968 13.0081 48.0535 12.615 47.7692V47.7743Z" fill="#FD7519"/>
<path d="M7.9435 21.5365C7.73183 21.0999 7.21274 20.9222 6.78436 21.1303C6.35094 21.3436 6.17455 21.8665 6.38118 22.298C6.59285 22.7347 7.11194 22.9124 7.54033 22.7042C7.96871 22.491 8.15013 21.968 7.9435 21.5365Z" fill="#FD7519"/>
<path d="M6.77907 17.7951C6.75387 17.3128 6.34565 16.9422 5.86687 16.9675C5.38809 16.9929 5.02018 17.3991 5.04034 17.8814C5.06554 18.3637 5.47379 18.7343 5.95257 18.714C6.43135 18.6886 6.79923 18.2774 6.77907 17.7951Z" fill="#FD7519"/>
<path d="M7.20253 13.6979C7.29325 13.2257 6.98078 12.7688 6.51208 12.6774C6.03834 12.586 5.58475 12.9008 5.49908 13.373C5.40836 13.8502 5.72083 14.3071 6.18953 14.3934C6.66327 14.4848 7.11686 14.17 7.20757 13.6979H7.20253Z" fill="#FD7519"/>
<path d="M9.70711 9.62611C9.94902 9.20981 9.8079 8.67165 9.39464 8.42796C8.98138 8.18427 8.44717 8.32134 8.20526 8.74273C7.96335 9.15904 8.10446 9.69719 8.51772 9.94088C8.93099 10.1846 9.4652 10.0424 9.70711 9.62611Z" fill="#FD7519"/>
<path d="M10.559 24.0396C10.2062 23.7147 9.65689 23.7401 9.33435 24.1005C9.0118 24.4559 9.03699 25.0093 9.38978 25.3342C9.7476 25.6591 10.2919 25.6337 10.6195 25.2784C10.942 24.923 10.9168 24.3696 10.5641 24.0396H10.559Z" fill="#FD7519"/>
<path d="M6.78939 18.0082C7.09177 20.7802 8.06949 21.7753 8.60874 22.2677L12.7515 26.0805C13.1244 26.4257 13.1546 27.0096 12.8119 27.3853L9.02705 31.5687C8.34164 32.3251 8.39707 33.4979 9.148 34.1934L13.3008 38.0062C13.6737 38.3514 13.704 38.9353 13.3613 39.311L10.0249 43.5197C9.38991 44.3219 9.51591 45.4896 10.3122 46.1293L15.2814 49.6984C15.6796 50.0131 15.7501 50.597 15.4376 50.998L13.2957 54.2219C12.701 55.0545 12.8926 56.212 13.7191 56.8111C14.5456 57.4102 15.6997 57.2173 16.2894 56.3847L20.0339 51.0996C20.6639 50.2924 20.5228 49.1247 19.7215 48.4951L14.7623 44.9717C14.3642 44.6519 14.3037 44.068 14.6212 43.672L17.9374 39.7628C18.6228 39.0064 18.5674 37.8336 17.8164 37.138L13.6637 33.3253C13.2907 32.98 13.2605 32.3962 13.6032 32.0205L17.3931 27.8371C18.0785 27.0807 18.0281 25.9079 17.2721 25.2124L11.7687 20.1507C11.0178 19.4602 11.0329 18.3382 11.6477 17.5259L17.378 9.8242C17.9424 9.08297 17.9021 8.21482 17.2772 7.64112C16.9647 7.35174 16.3448 7.01666 15.2159 7.13851C9.81324 7.72235 6.18965 12.4947 6.78939 18.0082ZM12.7414 9.53989C13.0186 9.23528 13.4822 9.21497 13.7846 9.48912C14.087 9.76835 14.1071 10.2354 13.835 10.54C13.5578 10.8447 13.0941 10.865 12.7918 10.5908C12.4894 10.3116 12.4692 9.83943 12.7414 9.53989Z" fill="#FD7519"/>
</svg>
